<svg xmlns="http://www.w3.org/2000/svg" xmlns:xlink="http://www.w3.org/1999/xlink" version="1.1" x="0px" y="0px" viewBox="0 0 160 200" style="enable-background:new 0 0 160 160;" xml:space="preserve"><path d="M125.855,26.08c-5.59-0.11-10.93,2.07-15.03,6.09c-4.18,4.12-6.58,9.81-6.58,15.63v43.5c0,0.73-0.25,1.45-0.7,2.02  c-0.03,0.03-0.05,0.06-0.08,0.1l-2.46,3.31c-1.79-0.81-3.73-1.37-5.76-1.61c-0.44-5.21-1.88-10.35-4.26-15.01l-4.76-9.35l14.27-9.59  c1.4-0.94,1.93-2.75,1.26-4.29l-6.76-15.65c1.92-0.89,3.67-2.33,5.19-4.31c5.63-7.38,6.89-20.14,4.82-27.74  c-0.29-1.07-1.07-1.94-2.09-2.34c-7.22-2.84-15.31-2.43-22.19,1.12c-3.1,1.59-5.6,3.64-7.1,5.74c-1.93-0.52-3.95-0.81-6.01-0.81  h-9.42c-2.07,0-4.08,0.29-6.02,0.81c-1.5-2.1-4-4.15-7.09-5.74c-6.89-3.55-14.98-3.96-22.19-1.12c-1.03,0.4-1.81,1.27-2.1,2.34  c-2.07,7.6-0.81,20.36,4.83,27.74c1.51,1.98,3.27,3.42,5.19,4.31l-6.77,15.65c-0.67,1.54-0.14,3.35,1.26,4.29l14.28,9.59l-4.77,9.35  c-2.38,4.66-3.82,9.8-4.26,15.01c-9.72,1.15-17.3,9.43-17.3,19.46c0,3.86,1.13,7.6,3.25,10.81l5.63,8.52  c-5.12,1.46-8.88,6.17-8.88,11.75v5.87c0,1.93,1.57,3.5,3.5,3.5h92.48c1.93,0,3.5-1.57,3.5-3.5v-5.87c0-5.64-3.84-10.39-9.04-11.8  l5.6-8.47c2.12-3.21,3.25-6.95,3.25-10.81c0-1.18-0.13-2.33-0.33-3.45c0.24-0.17,0.46-0.37,0.65-0.61l4.76-5.99  c2.98-3.75,4.62-8.45,4.62-13.23V47.33c0-0.94,0.41-1.83,1.11-2.44c0.71-0.63,1.63-0.91,2.58-0.79c1.58,0.21,2.81,1.73,2.81,3.46  v7.02c0,4.96,4.04,9,9,9c4.97,0,9-4.04,9-9v-7.25C146.745,35.8,137.375,26.27,125.855,26.08z M84.765,13.78  c2.63-1.21,7.75-2.82,13.86-1.02c0.98,6.04-0.36,15.13-4.01,19.91c-0.87,1.14-1.69,1.78-2.39,2.15l-3.48-8.05  c-1.82-4.2-4.79-7.66-8.45-10.07C81.235,15.81,82.695,14.72,84.765,13.78z M27.175,12.76c6.11-1.8,11.24-0.19,13.87,1.02  c2.07,0.94,3.52,2.03,4.46,2.92c-3.66,2.41-6.63,5.87-8.45,10.07l-3.47,8.05c-0.71-0.37-1.53-1.01-2.4-2.15  C27.535,27.89,26.195,18.8,27.175,12.76z M31.625,56.98l11.86-27.43c1.67-3.86,4.74-6.81,8.46-8.39v4.67c0,1.38,1.12,2.5,2.5,2.5  c1.38,0,2.5-1.12,2.5-2.5v-5.89c0.41-0.04,0.83-0.05,1.25-0.05h2.33v11.69c0,1.38,1.11,2.5,2.5,2.5c1.38,0,2.5-1.12,2.5-2.5V19.89  h2.09c0.5,0,0.99,0.03,1.48,0.07v5.87c0,1.38,1.12,2.5,2.5,2.5s2.5-1.12,2.5-2.5v-4.56c3.62,1.6,6.59,4.51,8.22,8.28l11.86,27.43  l-21.3,14.32h-19.94L31.625,56.98z M36.385,148.03h-16.13v-2.37c0-2.89,2.35-5.23,5.24-5.23h5.66c2.89,0,5.23,2.34,5.23,5.23V148.03  z M39.885,137.11c-2.22-2.27-5.31-3.68-8.73-3.68h-0.95l-7.86-11.9c-1.36-2.06-2.09-4.47-2.09-6.95c0-6.17,4.46-11.3,10.32-12.39  c0.4,4.39,1.51,8.66,3.32,12.73l8.91,19.98C41.725,135.49,40.745,136.24,39.885,137.11z M59.475,145.66v2.37h-16.09v-2.37  c0-2.89,2.35-5.23,5.24-5.23h5.66c2.78,0,5.04,2.18,5.2,4.92C59.485,145.45,59.475,145.55,59.475,145.66z M48.455,107.1  c2.17,2.71,6.31,5.59,11.07,6.6v20.92c-1.59-0.76-3.36-1.19-5.24-1.19h-4.48l-9.51-21.36c-1.92-4.3-2.9-8.88-2.9-13.6  c0-5.25,1.26-10.5,3.65-15.18l4.39-8.59l4.48,3.01c0.57,0.39,1.25,0.59,1.95,0.59h22.07c0.7,0,1.38-0.2,1.95-0.59l4.48-3.01  l4.39,8.59c2.39,4.68,3.65,9.93,3.65,15.18c0,4.72-0.97,9.3-2.89,13.6l-9.52,21.36h-4.29c-1.85,0-3.61,0.42-5.18,1.17v-20.91  c4.73-1.02,8.85-3.89,11.01-6.59c1.21-1.51,0.97-3.71-0.54-4.92c-1.51-1.21-3.71-0.96-4.92,0.55c-1.67,2.08-5.61,4.33-9.08,4.34  c-3.46-0.01-7.4-2.26-9.08-4.34c-1.2-1.51-3.41-1.76-4.92-0.55C47.495,103.39,47.245,105.59,48.455,107.1z M82.605,148.03h-16.08  v-2.84c0.24-2.66,2.46-4.76,5.18-4.76h5.66c2.89,0,5.24,2.34,5.24,5.23V148.03z M105.735,145.66v2.37h-16.13v-2.37  c0-2.89,2.35-5.23,5.23-5.23h5.66C103.385,140.43,105.735,142.77,105.735,145.66z M103.455,121.53l-7.86,11.9h-0.76  c-3.42,0-6.51,1.41-8.73,3.68c-0.9-0.91-1.93-1.68-3.07-2.28l8.87-19.91c1.81-4.07,2.92-8.34,3.32-12.73  c5.86,1.09,10.32,6.22,10.32,12.39C105.545,117.06,104.815,119.47,103.455,121.53z M139.745,54.58c0,1.1-0.9,2-2,2c-1.1,0-2-0.9-2-2  v-7.02c0-5.28-3.83-9.75-8.91-10.4c-2.94-0.37-5.89,0.52-8.1,2.47c-2.22,1.95-3.49,4.75-3.49,7.7V91.3c0,3.21-1.1,6.36-3.1,8.87  l-2.87,3.61c-0.73-1.11-1.56-2.14-2.5-3.07l2.29-3.08c1.41-1.8,2.18-4.05,2.18-6.33V47.8c0-3.95,1.64-7.83,4.49-10.64  c2.74-2.69,6.31-4.15,10.01-4.08c7.72,0.13,14,6.52,14,14.25V54.58z"/><path d="M80.395,42.69c0,1.67-1.36,3.04-3.04,3.04s-3.04-1.37-3.04-3.04c0-1.68,1.36-3.04,3.04-3.04S80.395,41.01,80.395,42.69z"/><path d="M51.625,42.69c0,1.67-1.37,3.04-3.04,3.04c-1.68,0-3.04-1.37-3.04-3.04c0-1.68,1.36-3.04,3.04-3.04  C50.255,39.65,51.625,41.01,51.625,42.69z"/><path d="M54.788,67.04c1.076,0.624,2.301,0.953,3.543,0.953c1.758,0,3.365-0.649,4.603-1.715c1.238,1.066,2.845,1.715,4.603,1.715  c1.242,0,2.467-0.329,3.543-0.953l1.599-0.926c1.195-0.691,1.603-2.221,0.911-3.416s-2.222-1.603-3.417-0.91l-1.599,0.926  c-0.316,0.183-0.674,0.279-1.038,0.279c-1.141,0-2.07-0.929-2.07-2.07v-1.225c0.225-0.145,0.444-0.299,0.645-0.483l5.99-5.498  c1.313-1.205,1.74-2.952,1.114-4.559c-0.686-1.763-2.456-2.901-4.507-2.901H56.73c-2.052,0-3.822,1.139-4.508,2.901  c-0.625,1.607-0.198,3.354,1.115,4.559l5.99,5.498c0.324,0.298,0.692,0.524,1.075,0.719v0.989c0,1.142-0.929,2.07-2.07,2.07  c-0.363,0-0.722-0.097-1.038-0.279l-1.599-0.926c-1.195-0.692-2.724-0.284-3.417,0.91c-0.692,1.195-0.284,2.725,0.911,3.416  L54.788,67.04z M58.051,51.257l9.334,0.007l-4.591,4.224c-0.029,0.012-0.089,0.013-0.128,0.006L58.051,51.257z"/><text x="0" y="175" fill="#000000" font-size="5px" font-weight="bold" font-family="'Helvetica Neue', Helvetica, Arial-Unicode, Arial, Sans-serif">Created by Symbolon</text><text x="0" y="180" fill="#000000" font-size="5px" font-weight="bold" font-family="'Helvetica Neue', Helvetica, Arial-Unicode, Arial, Sans-serif">from the Noun Project</text></svg>