<svg xmlns="http://www.w3.org/2000/svg" xmlns:xlink="http://www.w3.org/1999/xlink" version="1.1" x="0px" y="0px" viewBox="0 0 160 200" style="enable-background:new 0 0 160 160;" xml:space="preserve"><path d="M132.24,88.04c0-5.75-5.65-10.43-12.6-10.43c-3.25,0-6.2,1.03-8.44,2.7c-3.08-1.96-6.73-3.1-10.61-3.1H74.35  c0.21-0.88,0.32-1.78,0.32-2.71c0-2.36-0.7-4.61-1.98-6.5c1.28-1.89,1.98-4.14,1.98-6.51c0-3.24-1.35-6.25-3.6-8.4  c2.45-3.42,3.76-7.41,3.76-11.58c0-4.28-1.39-8.26-3.78-11.59c0.51-2.28,0.77-4.74,0.77-7.15c0-8.21-2.9-17.05-9.28-17.05  c-5.78,0-8.7,7.24-9.2,14.7c-0.53-0.03-1.05-0.06-1.59-0.06c-0.53,0-1.05,0.03-1.58,0.06c-0.5-7.46-3.42-14.7-9.2-14.7  c-6.38,0-9.28,8.84-9.28,17.05c0,2.41,0.26,4.87,0.77,7.15c-2.39,3.33-3.78,7.31-3.78,11.59c0,4.78,1.78,9.39,4.98,13.09  c-1.45,1.97-2.26,4.36-2.26,6.89c0,2.37,0.7,4.62,1.98,6.51c-1.28,1.89-1.98,4.14-1.98,6.5c0,1.65,0.35,3.26,1.01,4.74  c-2.84,2.15-4.65,5.57-4.65,9.29c0,2.67,0.9,5.19,2.5,7.21c-1.6,2.01-2.5,4.53-2.5,7.21c0,4.21,2.31,7.97,5.76,10.01  c0.03,7.85,2.41,15.03,6.33,19.27v14.51c0,4.16,3.38,7.54,7.54,7.54h1.66c4.16,0,7.54-3.38,7.54-7.54v-14.51  c0.37-0.4,0.72-0.83,1.06-1.28c0.34,0.45,0.69,0.88,1.06,1.28v14.51c0,4.16,3.38,7.54,7.54,7.54h1.66c4.16,0,7.54-3.38,7.54-7.54  v-14.51c1.99-2.15,3.6-5.08,4.7-8.52h0.31c1.09,3.4,2.69,6.35,4.7,8.52v14.51c0,4.16,3.38,7.54,7.54,7.54h1.66  c4.16,0,7.54-3.38,7.54-7.54v-14.51c0.45-0.48,0.87-1.01,1.27-1.56c0.41,0.55,0.83,1.08,1.27,1.56v14.51c0,4.16,3.39,7.54,7.55,7.54  h1.66c4.15,0,7.54-3.38,7.54-7.54v-14.51c3.93-4.27,6.33-11.52,6.33-19.43c0-5.67-1.22-10.93-3.33-15.03  C128.9,96.25,132.24,92.47,132.24,88.04z M62.54,12.99c0.88,1.1,2.28,4.49,2.28,9.78c0,0.45-0.02,0.87-0.04,1.29  c-1.4-0.87-2.91-1.61-4.5-2.19C60.43,17.1,61.71,14.03,62.54,12.99z M40.97,12.99c0.83,1.04,2.11,4.11,2.26,8.88  c-1.59,0.58-3.1,1.32-4.5,2.19c-0.02-0.42-0.04-0.84-0.04-1.29C38.69,17.48,40.09,14.09,40.97,12.99z M50.8,128.11l-1.21,1.05v17.58  c0,0.3-0.24,0.54-0.54,0.54h-1.66c-0.3,0-0.54-0.24-0.54-0.54v-17.58l-1.22-1.05c-0.93-0.81-1.86-2.07-2.67-3.71  c2.31,1.34,4.93,2.06,7.67,2.06h1.63C51.79,127.13,51.3,127.68,50.8,128.11z M96.11,128.11l-1.21,1.05v17.58  c0,0.3-0.24,0.54-0.54,0.54H92.7c-0.3,0-0.54-0.24-0.54-0.54v-17.58l-1.22-1.05c-1.05-0.92-2.11-2.42-2.99-4.4h11.16  C98.23,125.69,97.17,127.19,96.11,128.11z M115.4,128.11c-0.77,0.66-1.21,1.63-1.21,2.65v15.98c0,0.3-0.24,0.54-0.54,0.54h-1.66  c-0.3,0-0.55-0.24-0.55-0.54v-15.98c0-1.02-0.44-1.99-1.21-2.65c-1.93-1.67-3.53-4.83-4.4-8.67c-0.36-1.6-1.78-2.73-3.41-2.73H77.48  c-1.64,0-3.05,1.13-3.41,2.73c-0.87,3.84-2.47,7-4.4,8.67c-0.77,0.66-1.22,1.63-1.22,2.65v15.98c0,0.3-0.24,0.54-0.54,0.54h-1.66  c-0.3,0-0.54-0.24-0.54-0.54v-15.98c0-1.02-0.44-1.99-1.21-2.65c-1.49-1.28-2.81-3.51-3.73-6.26c-0.48-1.43-1.81-2.39-3.32-2.39  h-6.82c-2.25,0-4.36-0.88-5.95-2.46c-1.59-1.59-2.46-3.71-2.46-5.95c0-1.82-1.4-3.34-3.21-3.49c-2.39-0.2-4.25-2.22-4.25-4.61  c0-1.73,0.95-3.31,2.49-4.11c1.16-0.6,1.88-1.8,1.88-3.1c0-1.31-0.72-2.5-1.88-3.11c-1.54-0.8-2.49-2.37-2.49-4.1  c0-2.16,1.53-4.06,3.63-4.52c1.29-0.29,2.31-1.27,2.64-2.54c0.33-1.28-0.08-2.63-1.07-3.5c-1.01-0.9-1.56-2.13-1.56-3.47  c0-1.46,0.68-2.81,1.86-3.7c0.88-0.66,1.4-1.7,1.4-2.8s-0.52-2.14-1.4-2.8c-1.18-0.89-1.86-2.24-1.86-3.71  c0-1.59,0.81-3.05,2.16-3.91c0.95-0.6,1.56-1.63,1.62-2.75c0.07-1.13-0.41-2.22-1.29-2.93c-3.36-2.72-5.21-6.41-5.21-10.39  c0-7.8,7.21-14.15,16.07-14.15c8.87,0,16.08,6.35,16.08,14.15c0,3.64-1.58,7.1-4.45,9.75c-0.9,0.83-1.3,2.07-1.06,3.28  c0.25,1.2,1.11,2.18,2.26,2.59c1.85,0.66,3.09,2.41,3.09,4.36c0,1.47-0.68,2.82-1.86,3.71c-0.88,0.66-1.4,1.7-1.4,2.8  s0.52,2.14,1.4,2.8c1.18,0.89,1.86,2.24,1.86,3.7c0,1.37-0.6,2.66-1.64,3.54c-1.12,0.95-1.53,2.5-1.03,3.88  c0.51,1.38,1.82,2.29,3.29,2.29h32.3c6.15,0,11.43,4.39,12.54,10.44c0.18,0.96,0.75,1.8,1.57,2.32c2.8,1.78,5.82,7.49,5.82,15.83  C120.52,120.32,117.95,125.91,115.4,128.11z M119.64,91.48h-0.09c-0.66-2.29-1.71-4.39-3.07-6.24c0.87-0.39,1.95-0.63,3.16-0.63  c3.3,0,5.6,1.81,5.6,3.43C125.24,89.67,122.94,91.48,119.64,91.48z"/><path d="M47.26,36.71c0,1.68-1.36,3.04-3.04,3.04c-1.68,0-3.04-1.36-3.04-3.04s1.36-3.04,3.04-3.04  C45.9,33.67,47.26,35.03,47.26,36.71z"/><path d="M62.29,36.71c0,1.68-1.37,3.04-3.04,3.04c-1.68,0-3.04-1.36-3.04-3.04s1.36-3.04,3.04-3.04  C60.92,33.67,62.29,35.03,62.29,36.71z"/><path d="M47.8,44.567c0,1.072,0.678,1.979,1.625,2.334c-0.269,1.088-1.246,1.9-2.415,1.9c-1.381,0-2.5,1.119-2.5,2.5  s1.119,2.5,2.5,2.5c1.909,0,3.648-0.724,4.973-1.903c1.325,1.18,3.064,1.903,4.973,1.903c1.381,0,2.5-1.119,2.5-2.5  s-1.119-2.5-2.5-2.5c-1.165,0-2.138-0.806-2.411-1.887c0.968-0.345,1.665-1.26,1.665-2.347c0-1.381-1.119-2.5-2.5-2.5H50.3  C48.919,42.067,47.8,43.186,47.8,44.567z"/><text x="0" y="175" fill="#000000" font-size="5px" font-weight="bold" font-family="'Helvetica Neue', Helvetica, Arial-Unicode, Arial, Sans-serif">Created by Symbolon</text><text x="0" y="180" fill="#000000" font-size="5px" font-weight="bold" font-family="'Helvetica Neue', Helvetica, Arial-Unicode, Arial, Sans-serif">from the Noun Project</text></svg>